# xmcd
#
# Track frame offsets: 
#        150
#        12932
#        24944
#        40506
#        58575
#        80601
#        105897
#        111142
#        134763
#        159136
#        190719
#        207642
#        219912
#        241443
#
# Disc length: 3503 seconds
#
# Revision: 0
# Processed by: cddbd v1.5.2PL0 Copyright (c) Steve Scherf et al.
# Submitted via: ExactAudioCopy v1.3
#
DISCID=ae0dad0e
DTITLE=Agressor - Satan's Sodomy Of Death
DYEAR=2018
DGENRE=Thrash Metal
TTITLE0=Bloodfeast (The Merciless Onslaught)
TTITLE1=Lucifers Spell (The Merciless Onslaught)
TTITLE2=666 (The Merciless Onslaught)
TTITLE3=Satan's Sodomy - Brainstorm (Satan's Sodomy)
TTITLE4=Uncontrolled Desire (Satan's Sodomy)
TTITLE5=Black Church (Satan's Sodomy)
TTITLE6=It's Pandemonium (Satan's Sodomy)
TTITLE7=Bloody Corpse (Mixed Rehearsal)
TTITLE8=Elemental Decay (Mixed Rehearsal)
TTITLE9=Dark Power (Mixed Rehearsal)
TTITLE10=Neverending Destiny (Mixed Rehearsal)
TTITLE11=Paralytic Disease (Orbital Distortion)
TTITLE12=Bloody Corpse (Orbital Distortion)
TTITLE13=Elemental Decay (Orbital Distortion)
EXTD=
EXTT0=
EXTT1=
EXTT2=
EXTT3=
EXTT4=
EXTT5=
EXTT6=
EXTT7=
EXTT8=
EXTT9=
EXTT10=
EXTT11=
EXTT12=
EXTT13=
PLAYORDER=
